<svg id="svg" version="1.1" width="400" height="884.6" viewBox="0 0 400 884.6" xmlns="http://www.w3.org/2000/svg" xmlns:xlink="http://www.w3.org/1999/xlink" ><g id="svgg"><path id="path0" d="" stroke="none" fill="#000000" fill-rule="evenodd"></path><path id="path1" d="" stroke="none" fill="#990000" fill-rule="evenodd"></path><path id="path2" d="" stroke="none" fill="#993333" fill-rule="evenodd"></path><path id="path3" d="M373.040 1.848 C 372.494 2.167,369.368 5.314,365.945 8.990 C 365.212 9.778,361.907 13.262,358.600 16.732 C 355.294 20.202,349.204 26.608,345.066 30.968 C 340.928 35.327,334.621 41.963,331.051 45.714 C 327.481 49.465,317.945 59.502,309.860 68.018 C 290.086 88.845,283.976 95.273,274.553 105.152 C 269.460 110.491,266.478 113.901,266.330 114.553 C 266.129 115.434,251.920 170.513,250.706 175.115 C 250.189 177.076,248.496 183.557,246.951 189.493 C 246.344 191.825,245.668 194.539,245.447 195.525 L 245.047 197.318 243.353 197.097 C 234.333 195.923,149.701 196.714,130.323 198.154 C 128.903 198.259,123.346 198.602,117.972 198.914 C 76.060 201.352,36.853 206.784,18.065 212.754 C -2.384 219.252,-4.566 226.535,11.945 233.178 C 24.943 238.408,54.929 243.869,85.714 246.614 C 90.378 247.029,95.604 247.531,97.327 247.728 C 99.051 247.925,106.018 248.420,112.811 248.828 C 119.604 249.235,127.816 249.739,131.060 249.946 C 162.854 251.981,237.269 251.985,268.756 249.953 C 271.899 249.750,278.866 249.329,284.240 249.017 C 289.613 248.705,295.834 248.286,298.065 248.086 C 300.295 247.887,304.940 247.480,308.387 247.183 C 316.500 246.484,324.991 245.619,328.479 245.136 C 330.000 244.925,334.396 244.349,338.249 243.855 C 396.712 236.356,415.255 223.810,383.398 213.304 C 372.434 209.688,352.205 205.711,334.562 203.703 C 331.724 203.379,328.240 202.945,326.820 202.737 C 321.864 202.012,297.668 199.848,286.982 199.174 L 282.534 198.894 286.373 183.226 C 288.484 174.608,290.440 166.728,290.720 165.714 C 291.000 164.700,292.137 160.138,293.247 155.576 C 299.198 131.107,299.678 129.313,300.528 128.340 C 300.992 127.808,303.035 125.631,305.069 123.502 C 307.102 121.373,311.418 116.814,314.659 113.370 C 317.901 109.926,321.976 105.613,323.715 103.785 C 325.454 101.957,330.089 97.060,334.016 92.903 C 337.943 88.747,342.508 83.935,344.161 82.212 C 346.479 79.794,366.548 58.604,368.466 56.549 C 368.676 56.324,371.346 53.504,374.399 50.282 C 384.396 39.731,393.867 29.714,396.590 26.811 C 399.570 23.633,399.689 23.227,398.510 20.237 C 394.634 10.403,378.426 -1.298,373.040 1.848 M236.752 229.495 C 236.606 230.744,236.667 230.817,238.577 231.681 C 247.791 235.848,275.023 234.195,275.023 229.468 C 275.023 228.403,275.117 228.385,276.419 229.192 C 280.063 231.454,279.923 233.131,275.923 235.138 C 263.871 241.182,227.791 237.674,232.819 230.947 C 233.341 230.248,236.367 228.203,236.879 228.203 C 236.892 228.203,236.835 228.784,236.752 229.495 M3.840 241.664 C 3.983 243.425,4.512 248.623,5.015 253.216 C 5.518 257.809,6.431 266.212,7.044 271.889 C 7.656 277.567,8.646 286.691,9.244 292.166 C 9.842 297.641,10.821 306.848,11.420 312.627 C 12.019 318.406,12.596 323.631,12.703 324.240 C 12.811 324.848,13.410 330.157,14.036 336.037 C 14.662 341.917,15.650 351.124,16.232 356.498 C 16.814 361.871,17.793 371.078,18.407 376.959 C 19.022 382.839,19.610 388.147,19.715 388.756 C 19.819 389.364,20.403 394.548,21.012 400.276 C 23.817 426.648,24.313 431.260,24.515 432.811 C 24.634 433.724,25.202 438.999,25.778 444.534 C 26.971 455.993,26.956 455.941,28.016 452.293 C 29.430 447.433,32.824 438.133,34.656 434.101 C 35.024 433.290,35.860 431.382,36.513 429.862 C 48.033 403.032,68.023 376.853,85.530 365.670 C 89.645 363.042,90.584 362.519,94.194 360.847 C 112.526 352.353,129.259 357.330,141.791 375.005 C 148.158 383.984,146.383 395.834,138.510 396.913 C 134.398 397.477,132.187 395.283,125.800 384.303 C 113.943 363.920,89.526 376.727,67.580 414.839 C 66.909 416.005,65.760 417.995,65.026 419.263 C 63.663 421.619,56.774 435.195,56.774 435.526 C 56.774 435.627,56.290 436.757,55.698 438.039 C 39.808 472.433,39.555 505.619,55.191 504.615 C 59.399 504.345,64.064 501.887,72.457 495.516 C 83.839 486.878,101.224 465.654,103.891 457.143 C 104.304 455.825,105.376 452.590,106.274 449.954 C 107.172 447.318,108.785 442.507,109.859 439.263 C 113.140 429.348,114.010 427.903,117.772 426.124 C 121.529 424.346,124.899 425.059,127.352 428.148 L 128.479 429.568 128.445 435.152 C 128.396 443.217,126.939 448.797,120.537 465.438 C 116.894 474.904,108.455 501.680,103.050 520.922 C 101.119 527.796,99.969 531.848,98.972 535.300 C 95.840 546.137,89.541 552.022,84.563 548.760 C 81.673 546.866,81.393 538.607,83.914 529.585 C 86.692 519.645,88.634 513.221,92.418 501.453 C 93.742 497.334,94.757 493.896,94.673 493.813 C 94.589 493.729,92.965 495.335,91.064 497.381 C 68.932 521.211,46.801 530.805,34.647 521.838 C 33.052 520.661,33.063 520.634,33.531 524.664 C 33.751 526.559,34.517 534.332,35.233 541.935 C 37.190 562.726,38.579 577.340,39.822 590.230 C 41.023 602.676,42.816 621.507,44.614 640.553 C 46.400 659.473,46.224 658.347,47.630 659.799 C 55.129 667.538,97.010 679.264,131.613 683.312 C 134.350 683.632,137.585 684.054,138.802 684.249 C 159.306 687.535,210.735 688.711,234.839 686.445 C 236.968 686.245,241.779 685.827,245.530 685.516 C 252.827 684.912,253.488 684.836,266.175 683.145 C 301.018 678.503,334.683 669.452,346.617 661.518 C 350.006 659.265,350.071 659.124,350.763 652.535 C 351.094 649.392,351.527 645.742,351.727 644.424 C 351.927 643.106,352.596 637.465,353.215 631.889 C 354.283 622.273,355.006 615.942,357.572 593.733 C 358.181 588.461,359.175 579.668,359.781 574.194 C 360.387 568.719,361.064 562.995,361.285 561.475 C 361.507 559.954,362.095 554.977,362.593 550.415 C 363.091 545.853,364.078 537.143,364.787 531.060 C 365.496 524.977,366.569 515.604,367.171 510.230 C 367.772 504.857,368.430 499.306,368.632 497.894 C 368.834 496.483,368.938 495.267,368.865 495.194 C 368.791 495.120,366.593 497.021,363.980 499.419 C 358.311 504.621,354.549 507.933,353.165 508.940 C 352.608 509.346,351.180 510.440,349.993 511.372 C 341.743 517.848,332.998 522.150,326.148 523.102 C 304.416 526.122,298.820 511.708,314.503 493.106 C 314.853 492.690,317.143 489.862,319.590 486.820 C 322.038 483.779,325.876 479.051,328.120 476.313 C 340.383 461.352,341.353 455.528,331.314 457.132 C 318.148 459.235,301.137 478.834,289.000 505.883 C 283.426 518.304,282.351 520.729,281.761 522.212 C 281.438 523.023,281.049 523.853,280.896 524.055 C 280.187 524.998,267.209 559.039,265.436 564.608 C 262.514 573.783,256.994 578.958,250.809 578.320 C 246.182 577.843,244.234 575.512,244.280 570.507 C 244.339 564.043,245.801 560.410,264.235 520.922 C 265.039 519.198,266.285 516.461,267.003 514.839 C 267.721 513.217,268.678 511.060,269.131 510.046 C 270.825 506.248,272.429 502.352,272.336 502.260 C 272.284 502.207,271.414 502.942,270.403 503.893 C 267.665 506.470,265.027 508.803,263.448 510.046 C 262.674 510.654,261.381 511.691,260.573 512.349 C 256.902 515.340,248.381 520.345,245.346 521.294 C 244.535 521.548,243.688 521.900,243.463 522.077 C 243.239 522.253,241.354 522.678,239.273 523.019 C 229.861 524.564,223.293 520.786,222.068 513.122 C 221.818 511.558,221.708 511.475,220.859 512.205 C 210.241 521.334,195.688 525.725,190.127 521.479 C 186.142 518.436,184.660 505.734,187.471 498.710 C 187.989 497.415,187.068 498.112,186.009 499.816 C 175.915 516.061,160.030 525.205,145.488 523.141 C 133.613 521.455,130.204 511.377,135.510 493.641 C 140.282 477.690,147.849 458.791,154.961 445.056 C 158.076 439.041,163.702 436.735,168.874 439.355 C 173.789 441.844,173.716 445.523,168.556 455.343 C 165.445 461.264,159.631 472.839,159.631 473.113 C 159.631 473.239,159.221 474.240,158.719 475.337 C 154.672 484.185,151.885 496.158,152.952 500.116 C 154.912 507.391,168.170 502.560,177.942 491.009 C 185.052 482.605,194.627 465.440,197.599 455.767 C 199.490 449.617,202.394 443.162,204.096 441.326 C 204.581 440.804,204.977 440.253,204.977 440.103 C 204.977 438.678,210.930 437.778,213.062 438.881 C 218.617 441.753,218.276 447.302,211.602 462.673 C 207.830 471.358,206.814 473.761,205.595 476.883 C 198.452 495.170,197.590 504.822,203.050 505.346 C 208.755 505.895,222.065 498.693,223.344 494.366 C 224.536 490.335,226.157 485.509,227.117 483.134 C 227.690 481.714,228.766 478.977,229.507 477.051 C 233.385 466.976,242.985 442.628,243.679 441.106 C 243.864 440.700,244.789 438.378,245.735 435.945 C 246.680 433.512,249.690 425.880,252.423 418.986 C 255.156 412.092,258.962 402.470,260.881 397.604 C 262.799 392.737,264.523 388.424,264.711 388.018 C 265.019 387.356,266.194 384.381,267.990 379.724 C 270.452 373.336,273.805 370.507,278.915 370.507 C 285.703 370.507,288.452 376.593,285.160 384.332 C 284.048 386.945,279.391 397.531,278.297 399.934 C 277.713 401.215,277.235 402.336,277.235 402.425 C 277.235 402.514,276.058 405.364,274.620 408.759 C 273.181 412.153,271.425 416.341,270.716 418.065 C 270.008 419.788,269.207 421.696,268.937 422.304 C 268.446 423.410,267.011 426.930,261.120 441.475 C 259.396 445.733,256.742 452.286,255.223 456.037 C 241.254 490.529,240.015 493.941,239.733 498.699 C 239.470 503.138,239.912 503.963,242.551 503.963 C 248.600 503.963,261.472 494.765,279.441 477.604 C 284.088 473.165,283.901 473.480,286.115 466.359 C 291.075 450.405,296.067 442.028,300.617 442.028 C 306.504 442.028,308.551 446.889,306.405 455.775 C 305.974 457.557,305.622 459.152,305.622 459.320 C 305.622 459.488,307.359 457.913,309.483 455.820 C 325.661 439.875,338.652 434.875,349.549 440.397 C 360.484 445.938,359.672 457.843,347.153 475.547 C 345.227 478.271,337.960 487.576,337.341 488.111 C 336.793 488.584,326.685 500.597,325.970 501.624 C 323.400 505.319,327.351 508.027,332.046 505.788 C 337.170 503.346,356.966 487.453,370.308 475.071 C 371.388 474.068,371.406 473.984,372.216 466.246 C 372.666 461.949,373.549 453.705,374.178 447.926 C 374.807 442.147,375.816 432.691,376.420 426.912 C 377.023 421.134,377.602 415.908,377.706 415.300 C 377.810 414.691,378.387 409.465,378.988 403.687 C 381.114 383.257,382.307 372.154,382.494 371.061 C 382.598 370.452,383.192 365.060,383.815 359.078 C 384.438 353.097,385.420 343.806,385.996 338.433 C 386.573 333.060,387.555 323.853,388.178 317.972 C 388.802 312.092,389.400 306.783,389.508 306.175 C 389.615 305.567,390.200 300.258,390.806 294.378 C 391.412 288.498,392.400 279.124,393.000 273.548 C 393.600 267.972,394.582 258.848,395.182 253.272 C 395.782 247.696,396.390 242.082,396.534 240.796 L 396.794 238.458 394.526 239.603 C 384.564 244.632,361.715 249.804,334.931 253.094 C 330.876 253.592,326.396 254.166,324.977 254.371 C 321.435 254.881,295.060 257.208,287.373 257.689 C 252.545 259.866,244.883 260.074,199.816 260.071 C 157.330 260.067,154.087 259.996,125.899 258.440 C 110.536 257.592,107.431 257.370,92.350 256.037 C 80.744 255.011,80.018 254.933,66.912 253.302 C 37.725 249.670,16.612 244.956,6.122 239.729 L 3.580 238.462 3.840 241.664 M338.249 675.252 C 312.970 685.553,267.447 693.640,221.014 696.076 C 211.721 696.564,173.619 696.296,167.373 695.699 C 165.041 695.476,158.935 694.960,153.804 694.553 C 120.141 691.884,81.351 684.159,59.421 675.758 C 55.656 674.315,55.574 674.387,57.426 677.500 C 59.887 681.637,66.399 692.744,67.807 695.208 C 69.408 698.010,74.693 707.032,78.549 713.548 L 81.385 718.341 82.365 731.982 C 82.904 739.484,83.828 752.424,84.419 760.737 C 85.009 769.051,85.677 777.926,85.903 780.461 C 86.128 782.995,86.722 790.876,87.223 797.972 C 88.030 809.409,88.645 817.910,90.868 848.295 C 91.217 853.072,91.671 856.832,92.010 857.758 C 95.722 867.898,123.114 877.084,160.553 880.743 C 162.783 880.961,165.023 881.203,165.530 881.282 C 172.801 882.412,214.585 882.849,226.728 881.923 C 254.798 879.781,280.836 874.914,292.166 869.691 C 292.571 869.504,294.174 868.779,295.727 868.079 C 305.617 863.623,308.469 860.082,308.968 851.642 C 309.142 848.686,309.380 845.106,309.496 843.687 C 309.611 842.267,310.197 832.230,310.798 821.382 C 311.399 810.535,312.390 793.032,313.001 782.488 C 313.612 771.945,314.603 754.608,315.204 743.963 C 315.805 733.318,316.404 722.876,316.537 720.759 L 316.778 716.909 319.061 712.832 C 320.316 710.590,323.300 705.364,325.691 701.219 C 328.082 697.074,330.738 692.429,331.593 690.897 C 332.449 689.364,334.389 685.954,335.906 683.318 C 340.658 675.060,341.076 674.285,340.764 674.318 C 340.597 674.336,339.465 674.756,338.249 675.252 " stroke="none" fill="#db4446" fill-rule="evenodd"></path><path id="path4" d="" stroke="none" fill="#ff0000" fill-rule="evenodd"></path></g></svg>