<?xml version="1.0" encoding="utf-8"?>
<!-- Generator: Adobe Illustrator 22.0.1, SVG Export Plug-In . SVG Version: 6.00 Build 0)  -->
<svg version="1.1" id="Layer_1" xmlns="http://www.w3.org/2000/svg" xmlns:xlink="http://www.w3.org/1999/xlink" x="0px" y="0px"
	 viewBox="0 0 977 542" style="enable-background:new 0 0 977 542;" xml:space="preserve">
<style type="text/css">
	.st0{fill:#FFFFFF;}
	.st1{fill:#A2A2A2;}
	.st2{fill:none;stroke:#A2A2A2;stroke-miterlimit:10;}
	.st3{fill:#FC8383;}
	.st4{fill:#F7FC9A;}
	.st5{fill:#B7F492;}
	.st6{font-family:'Quicksand-Light';}
	.st7{font-size:12px;}
</style>
<title>home-page</title>
<path class="st0" d="M16.9,0.5h943.3c9,0,16.4,7.3,16.4,16.4v508.3c0,9-7.3,16.4-16.4,16.4H16.9c-9,0-16.4-7.3-16.4-16.4V16.9
	C0.5,7.8,7.8,0.5,16.9,0.5z"/>
<path class="st1" d="M960.1,1c8.8,0,15.9,7.1,15.9,15.9v508.3c0,8.8-7.1,15.9-15.9,15.9H16.9C8.1,541,1,533.9,1,525.1V16.9
	C1,8.1,8.1,1,16.9,1H960.1 M960.1,0H16.9C7.6,0,0,7.6,0,16.9v508.3c0,9.3,7.6,16.8,16.9,16.9h943.3c9.3,0,16.8-7.6,16.9-16.9V16.9
	C977,7.6,969.4,0,960.1,0z"/>
<line class="st2" x1="72.5" y1="198.1" x2="388.2" y2="198.1"/>
<line class="st2" x1="73.1" y1="227.4" x2="342.9" y2="227.4"/>
<line class="st2" x1="73.1" y1="256.8" x2="291.5" y2="256.8"/>
<line class="st2" x1="73.1" y1="286.2" x2="388.8" y2="286.2"/>
<line class="st2" x1="73.1" y1="315.5" x2="342.5" y2="315.5"/>
<line class="st2" x1="73.1" y1="344.9" x2="213.2" y2="344.9"/>
<line class="st2" x1="587.6" y1="198.1" x2="903.5" y2="198.5"/>
<line class="st2" x1="588.2" y1="227.4" x2="785.3" y2="227.4"/>
<line class="st2" x1="588.2" y1="256.8" x2="850.1" y2="256.8"/>
<line class="st2" x1="588.2" y1="286.2" x2="903.9" y2="286.2"/>
<line class="st2" x1="588.2" y1="315.5" x2="850.1" y2="315.5"/>
<line class="st2" x1="588.2" y1="344.9" x2="874.5" y2="344.5"/>
<path class="st2" d="M141.5,37.5h760c5.5,0,10,4.5,10,10l0,0c0,5.5-4.5,10-10,10h-760c-5.5,0-10-4.5-10-10l0,0
	C131.5,42,136,37.5,141.5,37.5z"/>
<path class="st1" d="M940.1,46h14.2c0.3,0,0.6,0.3,0.6,0.6l0,0c0,0.3-0.3,0.6-0.6,0.6h-14.2c-0.3,0-0.6-0.3-0.6-0.6l0,0
	C939.5,46.3,939.8,46,940.1,46z"/>
<path class="st1" d="M940.3,48.6h14.2c0.3,0,0.6,0.3,0.6,0.6l0,0c0,0.3-0.3,0.6-0.6,0.6h-14.2c-0.3,0-0.6-0.3-0.6-0.6l0,0
	C939.7,48.8,939.9,48.6,940.3,48.6z"/>
<path class="st1" d="M940.3,51.3h14.2c0.3,0,0.6,0.3,0.6,0.6l0,0c0,0.3-0.3,0.6-0.6,0.6h-14.2c-0.3,0-0.6-0.3-0.6-0.6l0,0
	C939.7,51.5,939.9,51.3,940.3,51.3z"/>
<path class="st1" d="M78.9,41.3c-0.3-0.3-0.7-0.3-0.9,0c-0.3,0.3-0.3,0.7,0,0.9l4.8,4.8H66.9c-0.4,0-0.7,0.3-0.7,0.6l0,0
	c0,0.4,0.3,0.7,0.6,0.7l0,0h15.8l-4.8,4.8c-0.3,0.3-0.3,0.7,0,1l0,0c0.3,0.3,0.7,0.3,0.9,0l0,0l5.9-5.9c0.3-0.2,0.3-0.6,0-0.9l0,0
	L78.9,41.3z"/>
<path class="st1" d="M39.6,54.1c0.3,0.3,0.7,0.3,0.9,0s0.3-0.7,0-0.9l0,0l-4.8-4.8h15.8c0.4,0,0.7-0.3,0.7-0.6l0,0
	c0-0.4-0.3-0.7-0.6-0.7l0,0H35.8l4.8-4.8c0.3-0.3,0.3-0.7,0-1s-0.7-0.3-0.9,0l0,0l-5.9,5.9c-0.3,0.2-0.3,0.6,0,0.9l0,0L39.6,54.1z"
	/>
<circle class="st3" cx="20.5" cy="14.5" r="5.5"/>
<circle class="st4" cx="40.5" cy="14.5" r="5.5"/>
<circle class="st5" cx="60.5" cy="14.5" r="5.5"/>
<text transform="matrix(1 0 0 1 150.6665 51.9165)" class="st1 st6 st7">a web developer / designer</text>
</svg>
