<svg id="Layer_1" data-name="Layer 1" xmlns="http://www.w3.org/2000/svg" viewBox="0 0 977 542"><defs><style>.cls-1{fill:#fff;}.cls-2{fill:none;stroke:#000;stroke-miterlimit:10;}.cls-3{fill:#1e201d;}.cls-4{fill:#fc8383;}.cls-5{fill:#f7fc9a;}.cls-6{fill:#b7f492;}</style></defs><title>home-page</title><path class="cls-1" d="M16.88.5H960.13A16.37,16.37,0,0,1,976.5,16.87V525.13a16.37,16.37,0,0,1-16.37,16.37H16.88A16.38,16.38,0,0,1,.5,525.13V16.88A16.38,16.38,0,0,1,16.88.5Z"/><path d="M960.13,1A15.89,15.89,0,0,1,976,16.88V525.13A15.89,15.89,0,0,1,960.13,541H16.88A15.89,15.89,0,0,1,1,525.13V16.88A15.89,15.89,0,0,1,16.88,1H960.13m0-1H16.88A16.92,16.92,0,0,0,0,16.88V525.13A16.92,16.92,0,0,0,16.88,542H960.13A16.92,16.92,0,0,0,977,525.13V16.88A16.92,16.92,0,0,0,960.13,0Z"/><line class="cls-2" x1="72.5" y1="198.08" x2="388.2" y2="198.08"/><line class="cls-2" x1="73.11" y1="227.45" x2="342.93" y2="227.45"/><line class="cls-2" x1="73.11" y1="256.82" x2="291.53" y2="256.82"/><line class="cls-2" x1="73.11" y1="286.18" x2="388.81" y2="286.18"/><line class="cls-2" x1="73.11" y1="315.55" x2="342.5" y2="315.5"/><line class="cls-2" x1="73.11" y1="344.92" x2="213.22" y2="344.92"/><line class="cls-2" x1="587.56" y1="198.08" x2="903.5" y2="198.5"/><line class="cls-2" x1="588.17" y1="227.45" x2="785.31" y2="227.45"/><line class="cls-2" x1="588.17" y1="256.82" x2="850.06" y2="256.82"/><line class="cls-2" x1="588.17" y1="286.18" x2="903.87" y2="286.18"/><line class="cls-2" x1="588.17" y1="315.55" x2="850.06" y2="315.55"/><line class="cls-2" x1="588.17" y1="344.92" x2="874.5" y2="344.5"/><rect class="cls-2" x="131.5" y="37.5" width="780" height="20" rx="10" ry="10"/><rect x="939.5" y="46.01" width="15.35" height="1.2" rx="0.6" ry="0.6"/><rect x="939.65" y="48.57" width="15.35" height="1.2" rx="0.6" ry="0.6"/><rect x="939.65" y="51.28" width="15.35" height="1.2" rx="0.6" ry="0.6"/><path class="cls-3" d="M78.87,41.35a.66.66,0,0,0-.94.94l4.79,4.79H66.91a.65.65,0,0,0-.66.66.66.66,0,0,0,.66.67H82.72l-4.79,4.78a.68.68,0,0,0,0,1,.66.66,0,0,0,.94,0l5.93-5.93a.64.64,0,0,0,0-.93Z"/><path class="cls-3" d="M39.62,54.14a.66.66,0,1,0,.94-.94l-4.79-4.79H51.58a.65.65,0,0,0,.66-.66.66.66,0,0,0-.66-.67H35.77l4.79-4.78a.68.68,0,0,0,0-.95.66.66,0,0,0-.94,0l-5.93,5.93a.64.64,0,0,0,0,.93Z"/><circle class="cls-4" cx="20.54" cy="14.5" r="5.54"/><circle class="cls-5" cx="40.5" cy="14.5" r="5.54"/><circle class="cls-6" cx="60.46" cy="14.5" r="5.54"/></svg>