<svg id="svg" version="1.1" width="400" height="300" viewBox="0 0 400 300" xmlns="http://www.w3.org/2000/svg" xmlns:xlink="http://www.w3.org/1999/xlink" ><g id="svgg"><path id="path0" d="" stroke="none" fill="#993399" fill-rule="evenodd"></path><path id="path1" d="M30.087 66.850 L 29.500 67.500 30.150 66.913 C 30.756 66.365,30.892 66.200,30.737 66.200 C 30.703 66.200,30.410 66.492,30.087 66.850 " stroke="none" fill="#d146a2" fill-rule="evenodd"></path><path id="path2" d="M174.200 0.125 C 156.937 1.112,141.152 4.492,123.900 10.897 C 56.192 36.030,8.431 76.577,0.565 115.600 C -2.266 129.644,4.721 145.539,20.789 161.612 C 29.579 170.405,38.760 177.576,59.063 191.507 C 67.646 197.396,74.857 202.682,77.385 204.938 L 78.269 205.727 76.985 206.438 C 76.278 206.828,74.575 207.716,73.200 208.411 C 62.718 213.703,49.986 221.447,41.800 227.509 C 24.216 240.531,16.569 250.591,13.711 264.463 C 10.540 279.855,17.408 295.454,28.600 298.281 C 60.243 306.275,94.572 284.684,103.302 251.300 C 106.998 237.164,106.192 220.248,101.320 209.702 C 100.920 208.836,100.662 208.059,100.746 207.976 C 101.223 207.508,122.368 195.400,122.711 195.400 C 122.745 195.400,122.460 196.322,122.077 197.450 C 118.552 207.833,116.789 223.575,118.096 233.000 C 119.797 245.265,125.524 257.840,131.052 261.448 C 135.063 264.065,141.937 264.153,146.100 261.640 C 150.776 258.817,155.800 250.156,164.048 230.700 C 165.027 228.390,165.780 226.815,165.721 227.200 C 164.621 234.413,164.888 244.208,166.320 249.150 C 168.737 257.491,175.331 260.353,181.961 255.938 C 185.251 253.747,189.777 248.517,192.204 244.100 C 192.567 243.440,193.916 241.010,195.203 238.700 C 206.837 217.810,215.715 199.250,225.308 175.763 C 227.179 171.183,227.275 171.041,227.489 172.548 C 227.721 174.192,228.991 179.539,230.138 183.700 C 231.763 189.599,232.601 191.688,236.795 200.300 C 238.135 203.050,239.246 205.350,239.265 205.410 C 239.298 205.513,237.534 207.958,234.349 212.226 C 232.873 214.205,230.188 217.504,226.395 222.000 C 211.287 239.906,210.086 241.599,209.850 245.324 C 209.287 254.203,225.392 254.880,242.300 246.688 C 260.840 237.705,266.257 222.169,258.002 201.655 L 257.238 199.757 259.497 196.428 C 266.381 186.282,275.383 170.855,279.962 161.354 C 281.105 158.982,281.042 158.986,281.466 161.255 C 283.301 171.082,285.623 178.129,289.884 186.800 C 292.179 191.470,292.146 190.846,290.179 192.493 C 269.639 209.686,261.722 234.962,275.586 239.078 C 282.401 241.101,299.667 232.946,308.117 223.714 C 316.170 214.915,317.586 206.221,313.118 193.011 C 312.729 191.862,312.431 190.902,312.456 190.878 C 312.873 190.468,318.426 188.678,321.933 187.823 C 335.790 184.446,354.325 185.432,367.165 190.229 C 378.813 194.581,387.287 202.641,390.169 212.108 C 393.269 222.295,390.019 230.196,379.929 237.000 C 377.451 238.671,377.070 239.143,377.282 240.277 C 378.081 244.535,390.557 237.806,395.426 230.491 C 405.012 216.087,398.340 194.154,380.844 182.556 C 377.845 180.568,377.406 180.307,375.179 179.188 C 356.536 169.823,330.960 170.073,309.822 179.826 C 308.899 180.252,308.119 180.600,308.089 180.600 C 307.762 180.600,301.905 168.431,301.007 165.888 C 299.918 162.801,298.968 156.117,298.963 151.500 C 298.957 146.061,299.635 142.763,302.640 133.621 C 304.426 128.186,304.157 127.111,300.687 125.812 C 295.987 124.054,283.191 125.203,279.951 127.675 C 279.084 128.336,277.942 131.585,276.568 137.300 C 275.052 143.606,274.158 145.895,269.853 154.500 C 265.270 163.659,251.991 187.200,251.407 187.200 C 251.101 187.200,247.579 179.533,246.804 177.179 C 246.466 176.154,245.996 173.939,245.713 172.039 C 244.144 161.497,244.554 157.786,248.660 145.344 L 250.097 140.988 249.599 140.044 C 248.326 137.634,245.960 136.894,239.600 136.916 C 233.430 136.938,229.672 137.550,226.794 139.003 C 225.213 139.801,225.169 139.889,223.912 144.713 C 221.651 153.392,221.698 153.278,204.015 192.875 C 191.070 221.861,184.638 234.881,183.710 233.974 C 183.058 233.336,183.102 226.673,183.785 222.745 C 184.842 216.671,187.546 205.607,191.910 189.500 C 194.327 180.581,194.358 179.273,192.195 177.320 C 189.169 174.585,184.817 174.146,181.747 176.266 C 180.307 177.260,180.316 177.272,180.673 174.772 C 184.037 151.219,168.702 144.494,147.691 160.307 C 141.895 164.669,137.738 168.798,133.187 174.713 C 132.684 175.366,132.010 176.035,131.688 176.200 C 131.366 176.365,130.427 176.869,129.601 177.320 C 128.776 177.771,127.515 178.457,126.800 178.845 C 125.073 179.782,118.910 183.149,117.900 183.707 C 117.460 183.950,114.220 185.723,110.700 187.648 C 107.180 189.573,103.895 191.374,103.400 191.650 C 102.905 191.926,100.565 193.208,98.200 194.498 C 95.835 195.789,93.658 196.986,93.361 197.159 L 92.823 197.473 89.682 194.323 C 85.467 190.097,77.541 183.357,70.600 178.097 C 51.009 163.250,42.372 155.223,36.600 146.500 C 23.276 126.360,30.273 101.750,55.814 78.926 C 76.707 60.256,112.228 40.538,140.900 31.695 C 184.380 18.284,223.405 23.807,229.259 44.200 C 235.549 66.107,212.556 97.241,178.590 112.811 C 145.661 127.905,111.960 128.148,97.925 113.391 C 95.484 110.824,94.782 110.318,93.868 110.466 C 89.718 111.140,92.890 119.621,99.568 125.703 C 107.161 132.619,115.971 136.227,128.700 137.635 C 131.912 137.990,145.771 137.995,149.200 137.643 C 172.895 135.208,194.297 128.230,209.559 117.964 C 240.339 97.258,257.228 63.892,250.485 37.111 C 245.309 16.552,224.268 3.319,192.100 0.389 C 189.728 0.173,176.716 -0.019,174.200 0.125 M169.129 167.927 C 172.584 169.567,168.346 184.605,154.705 219.100 C 146.340 240.255,141.577 244.295,139.029 232.400 C 135.692 216.823,141.077 195.556,152.541 179.042 C 157.843 171.404,165.560 166.233,169.129 167.927 M298.372 200.714 C 301.100 211.036,294.841 221.986,283.818 226.175 C 281.615 227.012,281.744 224.223,284.192 218.100 C 287.049 210.951,289.737 206.793,295.080 201.254 C 297.850 198.383,297.760 198.398,298.372 200.714 M89.096 219.524 C 92.142 237.073,86.252 253.602,72.451 266.234 C 61.265 276.472,44.738 280.634,39.837 274.447 C 34.635 267.879,39.158 252.617,49.502 241.833 C 56.517 234.519,73.607 222.067,85.995 215.244 C 86.493 214.969,87.125 214.584,87.400 214.387 L 87.900 214.029 88.253 215.365 C 88.447 216.099,88.826 217.971,89.096 219.524 M244.312 221.274 C 243.141 225.885,240.207 230.166,235.407 234.267 C 229.067 239.686,222.773 242.217,226.928 237.677 C 234.959 228.902,237.820 225.582,242.068 220.110 L 244.700 216.720 244.757 218.010 C 244.796 218.891,244.655 219.927,244.312 221.274 " stroke="none" fill="#ce679a" fill-rule="evenodd"></path><path id="path3" d="" stroke="none" fill="#ff5555" fill-rule="evenodd"></path><path id="path4" d="" stroke="none" fill="#ff00ff" fill-rule="evenodd"></path></g></svg>