<?xml version="1.0" encoding="iso-8859-1"?>
<!-- Generator: Adobe Illustrator 19.0.0, SVG Export Plug-In . SVG Version: 6.00 Build 0)  -->
<svg version="1.1" id="Capa_1" xmlns="http://www.w3.org/2000/svg" xmlns:xlink="http://www.w3.org/1999/xlink" x="0px" y="0px"
	 viewBox="0 0 512 512" style="enable-background:new 0 0 512 512;" xml:space="preserve">
<path style="fill:#FDC9A6;" d="M332.489,35.31L288.351,0h-52.966l-35.31,35.31l26.483,52.966l52.966-8.828
	c0,0-52.966,114.759,35.31,167.724v1.342c-30.102,8.21-55.464,26.906-71.345,51.624c-0.653,1.015-1.298,2.048-1.916,3.09l-3.24-3.09
	c-21.866-18.476-50.767-29.714-82.45-29.714c-19.686,0-36.396,4.343-52.913,12.058v211.862
	c185.662,73.754,369.805-134.029,369.805-134.029S526.695,194.207,332.489,35.31z"/>
<polygon style="fill:#4799CF;" points="32.351,264.828 102.971,282.483 102.971,494.345 32.351,512 "/>
<g>
	<path style="fill:#F6BB92;" d="M429.592,304.552c0,0-20.595,111.819-157.422,92.69c0,0-39.724,77.974-169.198,44.138l0,0v52.966
		c185.662,73.754,369.805-134.029,369.805-134.029s45.233-139.82-97.245-285.599C402.006,126.623,449.013,233.348,429.592,304.552z"
		/>
	<path style="fill:#F6BB92;" d="M217.615,70.391l8.942,17.885l52.966-8.828c0,0-1.677,3.672-3.937,9.913l15.722-31.938
		C275.145,73.657,217.615,70.391,217.615,70.391z"/>
</g>
<path style="fill:#277BAA;" d="M102.971,441.379c-0.009,0.009-15.784,17.646-70.621,24.143V512l70.621-17.655V441.379z"/>
<g>
</g>
<g>
</g>
<g>
</g>
<g>
</g>
<g>
</g>
<g>
</g>
<g>
</g>
<g>
</g>
<g>
</g>
<g>
</g>
<g>
</g>
<g>
</g>
<g>
</g>
<g>
</g>
<g>
</g>
</svg>
